<svg width="512" height="512" viewBox="0 0 512 512" fill="none" xmlns="http://www.w3.org/2000/svg">
<path fill-rule="evenodd" clip-rule="evenodd" d="M11 53.3154L59.7612 7L124.105 81.6192C286.252 -44.4615 435.53 50.7423 399.498 215.419C595.104 295.185 489.579 578.223 239.925 485.592L260.515 423.838C356.627 444.13 443.252 431.558 435.53 338.927C427.126 238.105 311.99 295.185 311.99 295.185L278.531 236.004C350.189 191.884 358.928 148.469 311.99 109.923C239.925 50.7423 160.138 145.946 160.138 145.946C160.138 145.946 268.245 351.792 191.023 462.434C164.963 499.772 90.6559 506.177 41.7449 462.434C-7.16608 418.692 23.7381 269.454 34.0236 236.004C44.3092 202.554 80.4916 135.654 80.4916 135.654L11 53.3154ZM90.6559 410.973C107.453 432.563 127.2 438.767 147.279 410.973C180.738 364.658 116.394 215.419 116.394 215.419C116.394 215.419 54.6233 364.658 90.6559 410.973Z" fill="white"/>
</svg>
