<svg width="96" height="97" viewBox="0 0 96 97" fill="none" xmlns="http://www.w3.org/2000/svg">
<path fill-rule="evenodd" clip-rule="evenodd" d="M0 9L9.47276 0L21.9728 14.5C53.4728 -10 82.4728 8.5 75.4728 40.5C113.473 56 92.9728 111 44.4728 93L48.4728 81C67.1443 84.943 83.9728 82.5 82.4728 64.5C80.8401 44.9083 58.4728 56 58.4728 56L51.9728 44.5C65.8935 35.9267 67.5913 27.4902 58.4728 20C44.4728 8.5 28.9728 27 28.9728 27C28.9728 27 49.9746 67 34.9728 88.5C29.9102 95.7555 15.4746 97 5.97276 88.5C-3.52909 80 2.47461 51 4.47276 44.5C6.47091 38 13.5 25 13.5 25L0 9ZM15.4746 78.5C18.7377 82.6955 22.5739 83.901 26.4746 78.5C32.9746 69.5 20.4746 40.5 20.4746 40.5C20.4746 40.5 8.47461 69.5 15.4746 78.5Z" fill="white"/>
</svg>
